<?xml version="1.0" encoding="UTF-8"?><svg id="Layer_2" xmlns="http://www.w3.org/2000/svg" xmlns:xlink="http://www.w3.org/1999/xlink" viewBox="0 0 42.56 58.91"><defs><style>.cls-1{fill:#9ccb42;}.cls-1,.cls-2,.cls-3,.cls-4,.cls-5{stroke-width:0px;}.cls-2{fill:#0e0f10;}.cls-3{fill:none;}.cls-6{filter:url(#drop-shadow-1);}.cls-4{fill:#fff;}.cls-5{fill:#0071cd;}</style><filter id="drop-shadow-1" filterUnits="userSpaceOnUse"><feOffset dx="0" dy="2.16"/><feGaussianBlur result="blur" stdDeviation="5"/><feFlood flood-color="#000" flood-opacity=".75"/><feComposite in2="blur" operator="in"/><feComposite in="SourceGraphic"/></filter></defs><g id="Artwork"><g class="cls-6"><path class="cls-4" d="m0,54.99c0,2.16,1.76,3.92,3.92,3.92h34.72c2.16,0,3.92-1.76,3.92-3.92V15.94H0v39.05Z"/><path class="cls-2" d="m38.64,0H3.92C1.76,0,0,1.76,0,3.92v12.02h42.56V3.92c0-2.16-1.76-3.92-3.92-3.92Z"/></g><path class="cls-5" d="m10.59,3.45c-2.5,0-4.52,2.02-4.52,4.52,0,2.5,2.02,4.52,4.52,4.52s4.52-2.02,4.52-4.52c0-2.5-2.02-4.52-4.52-4.52Zm1.26,4.71l.89,1.18c.07.1.08.26,0,.36l-.05.07c-.07.1-.21.24-.31.31l-.11.08c-.1.07-.26.07-.36,0l-1.18-.89c-.1-.07-.26-.07-.36,0l-1.18.89c-.1.07-.26.08-.36,0l-.08-.05c-.1-.07-.24-.21-.31-.31l-.07-.1c-.07-.1-.07-.26,0-.36l.89-1.18c.07-.1.07-.26,0-.36l-.89-1.18c-.07-.1-.08-.26,0-.36l.08-.11c.07-.1.21-.24.31-.31l.07-.05c.1-.07.26-.06.36,0l1.18.89c.1.07.26.07.36,0l1.18-.89c.1-.07.26-.08.37-.02l.12.07c.11.06.24.2.3.31l.04.08c.06.11.05.27-.03.37l-.89,1.18c-.07.1-.07.26,0,.36Z"/><path class="cls-4" d="m17.25,6.31c0-.27.21-.48.48-.48s.48.21.48.48v3.45c0,.27-.21.48-.48.48s-.48-.21-.48-.48v-3.45Z"/><path class="cls-4" d="m19.28,6.35c0-.27.21-.48.48-.48h2.42c.24,0,.43.19.43.43s-.19.43-.43.43h-1.94s0,.92,0,.92h1.67c.24,0,.43.19.43.43s-.19.43-.43.43h-1.67s0,1.23,0,1.23c0,.27-.21.48-.48.48s-.48-.21-.48-.48v-3.41Z"/><path class="cls-4" d="m23.38,6.31c0-.27.21-.48.48-.48s.48.21.48.48v3.45c0,.27-.21.48-.48.48s-.48-.21-.48-.48v-3.45Z"/><path class="cls-4" d="m30.5,6.31c0-.27.21-.48.48-.48s.48.21.48.48v3.45c0,.27-.21.48-.48.48s-.48-.21-.48-.48v-3.45Z"/><path class="cls-4" d="m33.53,6.75h-.91c-.24,0-.44-.2-.44-.44s.2-.44.44-.44h2.78c.24,0,.44.2.44.44,0,.24-.2.44-.44.44h-.91s0,3.01,0,3.01c0,.27-.21.48-.48.48s-.48-.21-.48-.48v-3.01Z"/><path class="cls-4" d="m28.1,8.06l1.35-1.35c.19-.19.19-.5,0-.69-.19-.19-.5-.19-.69,0l-1.35,1.35-1.35-1.35c-.19-.19-.5-.19-.69,0-.19.19-.19.5,0,.69l1.35,1.35-1.35,1.35c-.19.19-.19.5,0,.69.09.09.22.14.34.14s.25-.05.34-.14l1.35-1.35,1.35,1.35c.09.09.22.14.34.14s.25-.05.34-.14c.19-.19.19-.5,0-.69l-1.35-1.35Z"/><path class="cls-3" d="m30.55,43.59c-.09.13-.06.32.07.43l2.96,2.36c.07.05.16.08.24.07.09-.01.18-.06.23-.14,1.17-1.62,2-3.43,2.5-5.39l-4.32-.99c-.35,1.32-.91,2.55-1.69,3.66Z"/><path class="cls-3" d="m36.57,33.17c-.52-2.04-1.45-3.98-2.73-5.66l-3.47,2.77c.86,1.16,1.5,2.49,1.87,3.88l4.33-.99Z"/><path class="cls-3" d="m32.4,34.89c.14.73.23,1.45.23,2.15s-.09,1.43-.23,2.15l4.32.99c.22-1.06.34-2.12.34-3.14s-.12-2.1-.33-3.14l-4.33.99Z"/><polygon class="cls-2" points="17.67 33.68 22.65 33.68 19.11 41.71 21.42 41.71 25.09 33.3 25.09 31.83 17.67 31.83 17.67 33.68"/><path class="cls-1" d="m5.83,40.18l4.32-.99c-.14-.73-.23-1.45-.23-2.15s.09-1.43.23-2.16l-4.33-.99c-.21,1.04-.33,2.09-.33,3.14s.13,2.08.34,3.14Z"/><path class="cls-1" d="m5.99,33.17l4.33.99c.37-1.4,1.01-2.72,1.87-3.88l-3.47-2.77c-1.28,1.68-2.21,3.62-2.73,5.66Z"/><path class="cls-1" d="m10.32,39.93l-4.32.99c.5,1.96,1.33,3.79,2.51,5.41.05.07.12.11.21.12.09.01.18-.01.25-.07l2.97-2.36c.13-.11.16-.3.07-.43-.78-1.11-1.34-2.34-1.69-3.66Z"/><path class="cls-1" d="m16.03,27.01l-1.93-4.01c-1.87.96-3.55,2.3-4.91,3.93l3.47,2.77c.94-1.09,2.09-2.01,3.37-2.68Z"/><path class="cls-1" d="m29.9,29.69l3.47-2.77c-1.36-1.62-3.04-2.97-4.91-3.92l-1.93,4.01c1.28.67,2.43,1.59,3.37,2.68Z"/><path class="cls-1" d="m21.65,21.28v4.44c1.45.05,2.86.37,4.2.97l1.93-4.01c-1.93-.88-3.99-1.35-6.13-1.4Z"/><path class="cls-1" d="m16.7,26.68c1.34-.6,2.75-.92,4.2-.97v-4.44c-2.14.05-4.2.52-6.13,1.4l1.93,4.01Z"/><path class="cls-2" d="m37.4,33.36c-.55-2.41-1.65-4.7-3.2-6.63-1.55-1.94-3.53-3.53-5.75-4.59-2.25-1.08-4.66-1.63-7.18-1.63s-4.93.55-7.18,1.63c-2.21,1.07-4.2,2.66-5.75,4.6-1.54,1.93-2.65,4.23-3.19,6.63h0c-.28,1.21-.42,2.45-.42,3.68s.14,2.44.43,3.68h0c.5,2.2,1.42,4.24,2.74,6.05.17.23.42.38.71.42.05,0,.1,0,.14,0,.24,0,.48-.08.68-.24l2.97-2.36c.44-.35.54-.99.22-1.45-.8-1.13-1.36-2.39-1.67-3.75-.18-.8-.27-1.59-.27-2.36s.09-1.56.27-2.36c.35-1.54,1.06-3.01,2.05-4.25.98-1.23,2.26-2.25,3.69-2.94,1.46-.7,3-1.06,4.6-1.06s3.14.36,4.6,1.06c1.43.69,2.71,1.71,3.69,2.94.99,1.24,1.7,2.71,2.05,4.25.18.8.27,1.59.27,2.36s-.09,1.56-.27,2.36c-.31,1.36-.87,2.62-1.67,3.75-.32.46-.23,1.09.22,1.45l2.96,2.36c.19.15.42.23.66.23.05,0,.1,0,.15-.01.29-.04.56-.2.74-.45,1.3-1.8,2.22-3.83,2.72-6.02.28-1.24.43-2.48.43-3.68s-.14-2.46-.42-3.68Zm-15.75-7.65v-4.44c2.14.05,4.2.52,6.13,1.4l-1.93,4.01c-1.34-.6-2.75-.92-4.2-.97Zm11.72,1.21l-3.47,2.77c-.94-1.09-2.09-2.01-3.37-2.68l1.93-4.01c1.87.96,3.55,2.3,4.91,3.92Zm-12.47-1.21c-1.45.05-2.86.37-4.2.97l-1.93-4.01c1.93-.88,3.99-1.35,6.13-1.4v4.44Zm-8.97,18.3l-2.97,2.36c-.07.06-.16.08-.25.07-.08-.01-.16-.05-.21-.12-1.18-1.63-2.02-3.45-2.51-5.41l4.32-.99c.35,1.32.91,2.55,1.69,3.66.09.13.06.32-.07.43Zm-1.78-9.13c-.14.73-.23,1.45-.23,2.16s.09,1.43.23,2.15l-4.32.99c-.22-1.06-.34-2.12-.34-3.14s.12-2.1.33-3.14l4.33.99Zm.17-.73l-4.33-.99c.52-2.04,1.45-3.98,2.73-5.66l3.47,2.77c-.86,1.16-1.5,2.49-1.87,3.88Zm-1.13-7.23c1.36-1.62,3.04-2.97,4.91-3.93l1.93,4.01c-1.28.67-2.43,1.59-3.37,2.68l-3.47-2.77Zm21.18,3.35l3.47-2.77c1.28,1.68,2.21,3.62,2.73,5.66l-4.33.99c-.37-1.4-1.01-2.72-1.87-3.88Zm3.7,16.03c-.06.08-.14.13-.23.14-.09.02-.17-.01-.24-.07l-2.96-2.36c-.13-.11-.17-.3-.07-.43.78-1.11,1.34-2.34,1.69-3.66l4.32.99c-.49,1.95-1.32,3.77-2.5,5.39Zm2.66-6.12l-4.32-.99c.14-.73.23-1.45.23-2.15s-.09-1.43-.23-2.15l4.33-.99c.21,1.04.33,2.1.33,3.14s-.13,2.08-.34,3.14Z"/><path class="cls-2" d="m6.75,54.21l-.55-1.02h-.43v1.02h-.59v-2.84h1.3c.58,0,.93.39.93.92s-.31.77-.61.84l.62,1.08h-.68Zm-.36-2.32h-.62v.78h.62c.24,0,.42-.15.42-.39s-.18-.39-.42-.39Z"/><path class="cls-2" d="m8.13,54.21v-2.84h1.97v.52h-1.38v.62h1.35v.52h-1.35v.66h1.38v.52h-1.97Z"/><path class="cls-2" d="m10.87,54.21v-2.84h1.3c.6,0,.93.42.93.92s-.33.91-.93.91h-.71v1.02h-.59Zm1.22-2.32h-.63v.78h.63c.23,0,.41-.15.41-.39s-.17-.39-.41-.39Z"/><path class="cls-2" d="m15.51,54.21l-.18-.49h-1.24l-.17.49h-.65l1.07-2.84h.74l1.07,2.84h-.65Zm-.8-2.32l-.46,1.3h.92l-.46-1.3Z"/><path class="cls-2" d="m16.69,54.21v-2.84h.59v2.84h-.59Z"/><path class="cls-2" d="m19.68,54.21l-.55-1.02h-.43v1.02h-.59v-2.84h1.3c.58,0,.93.39.93.92s-.31.77-.61.84l.62,1.08h-.68Zm-.36-2.32h-.62v.78h.62c.24,0,.42-.15.42-.39s-.18-.39-.42-.39Z"/><path class="cls-2" d="m23.07,54.21l-.18-.49h-1.24l-.17.49h-.65l1.07-2.84h.74l1.07,2.84h-.65Zm-.8-2.32l-.46,1.3h.92l-.46-1.3Z"/><path class="cls-2" d="m24.25,54.21v-2.84h1.46c.53,0,.8.34.8.72,0,.36-.22.6-.48.65.3.05.53.34.53.7,0,.42-.28.77-.81.77h-1.51Zm.59-1.7h.74c.2,0,.32-.13.32-.32,0-.17-.12-.31-.32-.31h-.74v.63Zm0,1.18h.76c.22,0,.36-.13.36-.34,0-.18-.12-.33-.36-.33h-.76v.67Z"/><path class="cls-2" d="m27.3,54.21v-2.84h.59v2.84h-.59Z"/><path class="cls-2" d="m28.73,54.21v-2.84h.59v2.31h1.17v.53h-1.77Z"/><path class="cls-2" d="m31.11,54.21v-2.84h.59v2.84h-.59Z"/><path class="cls-2" d="m33.11,54.21v-2.31h-.81v-.53h2.22v.53h-.81v2.31h-.6Z"/><path class="cls-2" d="m36.02,54.21v-1.16l-1.07-1.68h.67l.69,1.14.68-1.14h.67l-1.06,1.68v1.16h-.59Z"/></g></svg>