<svg xmlns="http://www.w3.org/2000/svg" viewBox="0 0 1000 458.32"><path fill="#11161a" d="M401.03 184.26c0-6.92 5.47-12.39 12.39-12.39s12.39 5.47 12.39 12.39v89.8c0 6.92-5.47 12.39-12.39 12.39s-12.39-5.47-12.39-12.39zm52.94.97c0-6.92 5.47-12.39 12.39-12.39h63.08c6.28 0 11.26 4.99 11.26 11.26 0 6.28-4.99 11.27-11.26 11.27h-50.69v23.98h43.45c6.28 0 11.26 4.99 11.26 11.26 0 6.28-4.99 11.26-11.26 11.26h-43.45v32.19c0 6.92-5.47 12.39-12.39 12.39s-12.39-5.47-12.39-12.39zm106.7-.97c0-6.92 5.47-12.39 12.39-12.39s12.39 5.47 12.39 12.39v89.8c0 6.92-5.47 12.39-12.39 12.39s-12.39-5.47-12.39-12.39zm185.54 0c0-6.92 5.47-12.39 12.39-12.39s12.39 5.47 12.39 12.39v89.8c0 6.92-5.47 12.39-12.39 12.39s-12.39-5.47-12.39-12.39zm79.18 11.43h-23.82c-6.28 0-11.42-5.15-11.42-11.43 0-6.27 5.15-11.43 11.42-11.43h72.42c6.28 0 11.43 5.15 11.43 11.43s-5.15 11.43-11.43 11.43h-23.82v78.37c0 6.92-5.47 12.39-12.39 12.39s-12.39-5.47-12.39-12.39zm-141.57 33.47 35.57-35.57c4.97-4.97 4.97-13.03 0-18s-13.03-4.97-18 0l-35.57 35.57-35.57-35.57c-4.97-4.97-13.03-4.97-18 0s-4.97 13.03 0 18l35.56 35.57-35.56 35.56c-4.97 4.97-4.97 13.03 0 18 2.48 2.48 5.74 3.73 9 3.73s6.51-1.24 9-3.73l35.57-35.57 35.57 35.57c2.49 2.48 5.74 3.73 9 3.73s6.52-1.24 9-3.73c4.97-4.97 4.97-13.03 0-18l-35.57-35.57Z"/><path fill="#0071ce" d="M229.16 114.58c-63.28 0-114.58 51.3-114.58 114.58s51.3 114.58 114.58 114.58 114.58-51.3 114.58-114.58-51.3-114.58-114.58-114.58m32.95 119.37 22.2 29.32c.15.21.34.45.53.7.56.74 1.01 1.57 1.25 2.47.3 1.08.41 2.21.3 3.32-.11 1.13-.43 2.27-1 3.25-.46.79-.97 1.56-1.51 2.3-.6.81-1.23 1.59-1.89 2.35-.67.77-1.38 1.52-2.1 2.24s-1.47 1.43-2.24 2.1c-.76.66-1.54 1.29-2.35 1.89-.74.54-1.5 1.06-2.3 1.51-.99.57-2.12.89-3.25 1-1.11.11-2.24 0-3.32-.3-.9-.25-1.73-.69-2.47-1.25-.25-.19-.49-.38-.7-.53l-29.32-22.2a7.95 7.95 0 0 0-9.6 0l-29.31 22.2c-.21.15-.45.34-.7.53-.74.56-1.57 1.01-2.47 1.25-1.08.3-2.21.41-3.32.3-1.13-.11-2.27-.43-3.25-1-.79-.46-1.56-.97-2.3-1.51-.81-.6-1.59-1.23-2.35-1.89-.77-.67-1.52-1.38-2.24-2.1s-1.43-1.47-2.1-2.24c-.66-.76-1.29-1.54-1.89-2.35-.54-.74-1.06-1.5-1.51-2.3-.57-.99-.89-2.12-1-3.25-.11-1.11 0-2.24.3-3.32.25-.9.69-1.73 1.25-2.47.19-.25.38-.49.53-.7l22.2-29.31a7.95 7.95 0 0 0 0-9.6l-22.2-29.32c-.15-.21-.34-.45-.53-.7-.56-.74-1.01-1.57-1.25-2.47-.3-1.08-.41-2.21-.3-3.32.11-1.13.43-2.27 1-3.25.46-.79.97-1.56 1.51-2.3.6-.81 1.23-1.59 1.89-2.35.67-.77 1.38-1.52 2.1-2.24s1.47-1.43 2.24-2.1c.76-.66 1.54-1.29 2.35-1.89.74-.54 1.5-1.06 2.3-1.51.99-.57 2.12-.89 3.25-1 1.11-.11 2.24 0 3.32.3.9.25 1.73.69 2.47 1.25.25.19.49.38.7.53l29.32 22.2a7.95 7.95 0 0 0 9.6 0l29.31-22.2c.21-.15.45-.34.7-.53.74-.56 1.57-1.01 2.47-1.25 1.08-.3 2.21-.41 3.32-.3 1.13.11 2.27.43 3.25 1 .79.46 1.56.97 2.3 1.51.81.6 1.59 1.23 2.35 1.89.77.67 1.52 1.38 2.24 2.1s1.43 1.47 2.1 2.24c.66.76 1.29 1.54 1.89 2.35.54.74 1.06 1.5 1.51 2.3.57.99.89 2.12 1 3.25.11 1.11 0 2.24-.3 3.32-.25.9-.69 1.73-1.25 2.47-.19.25-.38.49-.53.7l-22.2 29.31a7.95 7.95 0 0 0 0 9.6"/></svg>